<svg width="570" height="523" viewBox="0 0 570 523" fill="none" xmlns="http://www.w3.org/2000/svg">
<path d="M60.1716 232.739C61.7337 231.176 64.2663 231.176 65.8284 232.739L76.1716 243.082C77.7337 244.644 77.7337 247.176 76.1716 248.739L65.8284 259.082C64.2663 260.644 61.7337 260.644 60.1716 259.082L49.8284 248.739C48.2663 247.176 48.2663 244.644 49.8284 243.082L60.1716 232.739Z" fill="#ADCDDD"/>
<path d="M508.172 355.016C509.734 353.454 512.266 353.454 513.828 355.016L524.172 365.359C525.734 366.921 525.734 369.454 524.172 371.016L513.828 381.359C512.266 382.921 509.734 382.921 508.172 381.359L497.828 371.016C496.266 369.454 496.266 366.921 497.828 365.359L508.172 355.016Z" fill="#0000FF"/>
</svg>
