<svg width="32" height="32" viewBox="0 0 32 32" fill="none" xmlns="http://www.w3.org/2000/svg">
<rect width="32" height="32" rx="16" fill="#FF9B00"/>
<path d="M16.0036 8.12888C18.5688 8.12888 18.8699 8.14031 19.8838 8.18605C20.8214 8.22798 21.3283 8.38425 21.6676 8.51765C22.1173 8.69298 22.4375 8.89881 22.7729 9.23422C23.1083 9.56964 23.318 9.88981 23.4895 10.3396C23.6191 10.6788 23.7792 11.1857 23.8211 12.1234C23.8668 13.1372 23.8783 13.4384 23.8783 16.0035C23.8783 18.5687 23.8668 18.8698 23.8211 19.8837C23.7792 20.8213 23.6229 21.3282 23.4895 21.6675C23.3142 22.1172 23.1083 22.4374 22.7729 22.7728C22.4375 23.1082 22.1173 23.3179 21.6676 23.4894C21.3283 23.619 20.8214 23.7791 19.8838 23.821C18.8699 23.8667 18.5688 23.8782 16.0036 23.8782C13.4385 23.8782 13.1373 23.8667 12.1235 23.821C11.1858 23.7791 10.6789 23.6228 10.3397 23.4894C9.88991 23.3141 9.56974 23.1082 9.23432 22.7728C8.8989 22.4374 8.68927 22.1172 8.51775 21.6675C8.38816 21.3282 8.22807 20.8213 8.18615 19.8837C8.14041 18.8698 8.12897 18.5687 8.12897 16.0035C8.12897 13.4384 8.14041 13.1372 8.18615 12.1234C8.22807 11.1857 8.38435 10.6788 8.51775 10.3396C8.69308 9.88981 8.8989 9.56964 9.23432 9.23422C9.56974 8.89881 9.88991 8.68917 10.3397 8.51765C10.6789 8.38806 11.1858 8.22798 12.1235 8.18605C13.1373 8.1365 13.4423 8.12888 16.0036 8.12888ZM16.0036 6.39844C13.3965 6.39844 13.0687 6.40987 12.0434 6.45561C11.0219 6.50135 10.3244 6.66525 9.71457 6.90156C9.08186 7.1455 8.54824 7.4771 8.01463 8.01072C7.48101 8.54433 7.15322 9.08176 6.90547 9.71067C6.66915 10.3205 6.50526 11.018 6.45952 12.0433C6.41378 13.0648 6.40234 13.3926 6.40234 15.9997C6.40234 18.6068 6.41378 18.9346 6.45952 19.9599C6.50526 20.9814 6.66915 21.6789 6.90547 22.2926C7.14941 22.9253 7.48101 23.4589 8.01463 23.9925C8.54824 24.5261 9.08567 24.8539 9.71457 25.1017C10.3244 25.338 11.0219 25.5019 12.0472 25.5476C13.0725 25.5934 13.3965 25.6048 16.0074 25.6048C18.6183 25.6048 18.9423 25.5934 19.9676 25.5476C20.9891 25.5019 21.6866 25.338 22.3003 25.1017C22.933 24.8577 23.4666 24.5261 24.0002 23.9925C24.5339 23.4589 24.8616 22.9215 25.1094 22.2926C25.3457 21.6827 25.5096 20.9852 25.5553 19.9599C25.6011 18.9346 25.6125 18.6106 25.6125 15.9997C25.6125 13.3888 25.6011 13.0648 25.5553 12.0395C25.5096 11.018 25.3457 10.3205 25.1094 9.70685C24.8655 9.07414 24.5339 8.54052 24.0002 8.00691C23.4666 7.47329 22.9292 7.1455 22.3003 6.89775C21.6904 6.66143 20.9929 6.49754 19.9676 6.4518C18.9385 6.40987 18.6107 6.39844 16.0036 6.39844Z" fill="white"/>
<path d="M16.0036 8.12888C18.5688 8.12888 18.8699 8.14031 19.8838 8.18605C20.8214 8.22798 21.3283 8.38425 21.6676 8.51765C22.1173 8.69298 22.4375 8.89881 22.7729 9.23422C23.1083 9.56964 23.318 9.88981 23.4895 10.3396C23.6191 10.6788 23.7792 11.1857 23.8211 12.1234C23.8668 13.1372 23.8783 13.4384 23.8783 16.0035C23.8783 18.5687 23.8668 18.8698 23.8211 19.8837C23.7792 20.8213 23.6229 21.3282 23.4895 21.6675C23.3142 22.1172 23.1083 22.4374 22.7729 22.7728C22.4375 23.1082 22.1173 23.3179 21.6676 23.4894C21.3283 23.619 20.8214 23.7791 19.8838 23.821C18.8699 23.8667 18.5688 23.8782 16.0036 23.8782C13.4385 23.8782 13.1373 23.8667 12.1235 23.821C11.1858 23.7791 10.6789 23.6228 10.3397 23.4894C9.88991 23.3141 9.56974 23.1082 9.23432 22.7728C8.8989 22.4374 8.68927 22.1172 8.51775 21.6675C8.38816 21.3282 8.22807 20.8213 8.18615 19.8837C8.14041 18.8698 8.12897 18.5687 8.12897 16.0035C8.12897 13.4384 8.14041 13.1372 8.18615 12.1234C8.22807 11.1857 8.38435 10.6788 8.51775 10.3396C8.69308 9.88981 8.8989 9.56964 9.23432 9.23422C9.56974 8.89881 9.88991 8.68917 10.3397 8.51765C10.6789 8.38806 11.1858 8.22798 12.1235 8.18605C13.1373 8.1365 13.4423 8.12888 16.0036 8.12888Z" fill="white"/>
<path d="M16.0024 11.0742C13.281 11.0742 11.0703 13.2811 11.0703 16.0063C11.0703 18.7316 13.2772 20.9385 16.0024 20.9385C18.7277 20.9385 20.9346 18.7316 20.9346 16.0063C20.9346 13.2811 18.7277 11.0742 16.0024 11.0742ZM16.0024 19.2042C14.2339 19.2042 12.8008 17.7711 12.8008 16.0025C12.8008 14.234 14.2339 12.8008 16.0024 12.8008C17.771 12.8008 19.2041 14.234 19.2041 16.0025C19.2041 17.7711 17.771 19.2042 16.0024 19.2042Z" fill="#FF9B00"/>
<path d="M21.1276 12.0248C21.7634 12.0248 22.2787 11.5095 22.2787 10.8737C22.2787 10.238 21.7634 9.72266 21.1276 9.72266C20.4919 9.72266 19.9766 10.238 19.9766 10.8737C19.9766 11.5095 20.4919 12.0248 21.1276 12.0248Z" fill="#FF9B00"/>
</svg>
