<svg width="32" height="32" viewBox="0 0 32 32" fill="none" xmlns="http://www.w3.org/2000/svg">
<rect width="32" height="32" rx="16" fill="#FF9B00"/>
<path d="M23.5 7.19922H8.49844C8.15387 7.19922 7.8234 7.3361 7.57975 7.57975C7.3361 7.8234 7.19922 8.15387 7.19922 8.49844V23.5C7.19922 23.8446 7.3361 24.175 7.57975 24.4187C7.8234 24.6623 8.15387 24.7992 8.49844 24.7992H23.5C23.8446 24.7992 24.175 24.6623 24.4187 24.4187C24.6623 24.175 24.7992 23.8446 24.7992 23.5V8.49844C24.7992 8.15387 24.6623 7.8234 24.4187 7.57975C24.175 7.3361 23.8446 7.19922 23.5 7.19922ZM12.445 22.1922H9.79889V13.787H12.445V22.1922ZM11.1201 12.6222C10.82 12.6205 10.527 12.53 10.2783 12.3619C10.0296 12.1939 9.83617 11.956 9.72253 11.6782C9.60889 11.4004 9.58009 11.0951 9.63977 10.801C9.69946 10.5068 9.84494 10.2369 10.0579 10.0253C10.2708 9.81376 10.5416 9.67001 10.8362 9.61222C11.1307 9.55443 11.4358 9.58519 11.7128 9.70061C11.9899 9.81603 12.2266 10.0109 12.393 10.2607C12.5594 10.5106 12.6481 10.8041 12.6479 11.1042C12.6507 11.3052 12.6131 11.5046 12.5372 11.6907C12.4613 11.8768 12.3487 12.0457 12.2061 12.1874C12.0635 12.3291 11.8939 12.4406 11.7073 12.5153C11.5208 12.59 11.321 12.6263 11.1201 12.6222ZM22.1983 22.1996H19.5534V17.6077C19.5534 16.2534 18.9778 15.8354 18.2347 15.8354C17.45 15.8354 16.68 16.427 16.68 17.6419V22.1996H14.0339V13.7931H16.5786V14.9579H16.6128C16.8682 14.4409 17.7629 13.5572 19.1281 13.5572C20.6046 13.5572 22.1996 14.4336 22.1996 17.0002L22.1983 22.1996Z" fill="white"/>
</svg>
