<svg width="52" height="53" viewBox="0 0 52 53" fill="none" xmlns="http://www.w3.org/2000/svg">
<path d="M20.3431 6.56701C23.4673 3.44282 28.5327 3.44282 31.6569 6.56701L46.3431 21.2533C49.4673 24.3775 49.4673 29.4428 46.3431 32.567L31.6569 47.2533C28.5327 50.3775 23.4673 50.3775 20.3431 47.2533L5.65686 32.567C2.53266 29.4428 2.53266 24.3775 5.65685 21.2533L20.3431 6.56701Z" fill="#EF856E"/>
<path fill-rule="evenodd" clip-rule="evenodd" d="M17 25.8308C19.0707 26.2563 21.734 27.08 23.75 28.3751C26.1177 25.2446 30.371 22.3161 35 19.9102C30.6042 24.1841 26.9667 29.0338 24.5 33.9102C22.5117 31.123 20.3398 28.5291 17 25.8308Z" fill="white"/>
</svg>
