<svg width="205" height="92" viewBox="0 0 205 92" fill="none" xmlns="http://www.w3.org/2000/svg">
<path fill-rule="evenodd" clip-rule="evenodd" d="M0.943521 36.3766C13.7937 39.2764 27.2147 35.8326 36.937 27.1408C41.8413 23 45.5125 17.6152 47.5626 11.5559C48.6207 8.77338 48.4761 5.6737 47.1625 2.98006C45.4476 0.334294 41.9938 -0.607169 39.1812 0.804479C36.3044 2.34631 33.8339 4.53068 31.9641 7.18575C29.9236 9.6331 28.136 12.2774 26.6279 15.0797C23.4928 20.2687 22.1834 26.3504 22.9025 32.3823C24.1585 38.8867 28.9158 44.2133 35.2889 46.2512C42.2861 48.4272 49.8653 47.5379 56.1061 43.8087C62.0497 40.5835 67.0045 35.8422 70.4608 30.0727C73.6976 25.3508 74.3391 19.3265 72.1725 13.9972C71.465 12.7481 70.5239 11.6424 69.3999 10.7395C68.6182 10.2262 67.5718 10.4106 67.027 11.1575C60.5745 17.3009 56.0214 25.1371 53.8918 33.7641C52.4841 40.815 54.8857 48.1137 60.2335 53.0375C66.7677 57.7086 75.3151 58.5362 82.5741 55.2006C88.9953 52.4991 94.3002 47.7412 97.6439 41.6847C101.621 34.8811 102.853 26.8245 101.096 19.1158C100.963 18.5126 100.523 18.0189 99.9339 17.8129C99.3451 17.6069 98.693 17.7184 98.2129 18.1071C88.2488 25.0918 82.7612 36.768 83.7562 48.8674C84.568 53.9786 87.2812 58.6198 91.3617 61.8776C95.7709 65.0363 101.258 66.3314 106.603 65.4749C117.954 63.0267 127.082 54.7776 130.568 43.8182C133.917 39.0595 133.768 32.6822 130.201 28.0239C128.143 26.2108 125.091 26.0724 122.903 27.6929C121.941 28.5036 121.125 29.4688 120.488 30.5486C119.487 32.0714 118.515 33.6128 117.571 35.1729C113.892 40.669 111.514 46.9232 110.613 53.4736C110.104 58.6617 111.369 63.8835 114.206 68.3036C117.224 72.745 122.157 75.5495 127.537 75.8825C133.212 76.1413 138.809 74.614 143.524 71.5201C151.001 66.8031 156.474 59.5506 158.931 51.1056C159.774 48.5756 160.067 45.8936 159.791 43.2347C159.566 40.8227 158.342 38.6022 156.412 37.1005C154.056 35.7001 151.051 36.0732 149.145 38.0028C147.016 40.1036 145.216 42.5082 143.804 45.1381C140.516 50.6377 138.454 56.7767 137.755 63.1471C137.337 65.9481 137.434 68.8049 138.04 71.5804C138.7 74.3025 140.398 76.6743 142.777 78.1972C145.304 79.6002 148.064 80.5395 150.922 80.9694C164.848 83.8248 178.786 86.6168 192.737 89.3453L202.985 91.3663C204.521 91.6692 204.989 89.7236 204.316 88.7342C201.667 84.848 199.132 80.882 196.496 76.9874C195.87 76.2711 194.782 76.1805 194.055 76.7842C193.351 77.4043 193.268 78.467 193.868 79.197C196.502 83.085 199.238 86.9019 201.86 90.7983L203.191 88.1662C190.937 85.6687 178.678 83.1899 166.414 80.7296C160.593 79.5703 154.637 78.6743 148.893 77.1736C146.489 76.952 144.27 75.7756 142.744 73.9133C141.218 72.051 140.515 69.6622 140.796 67.2929C140.826 61.7079 142.031 56.2 144.334 51.1199C145.423 48.6571 146.764 46.3129 148.337 44.124C149.318 41.9502 151.195 40.303 153.495 39.5978C155.13 40.1561 156.227 41.6879 156.214 43.3953C156.514 45.5979 156.305 47.835 155.601 49.9373C154.247 54.7644 151.811 59.219 148.471 62.9711C142.449 70.9327 131.999 74.2631 122.34 71.299C118.418 69.2901 115.568 65.6883 114.543 61.4442C113.323 56.6436 113.604 51.6013 115.351 46.9873C117.424 41.4497 120.321 36.2548 123.946 31.5733C124.398 30.7825 125.158 30.2107 126.05 29.989C126.972 29.9953 127.844 30.4203 128.415 31.1417C129.665 33.0344 129.881 35.4127 128.99 37.4782C126.9 47.3858 120.527 55.8566 111.547 60.6615C107.334 62.5419 102.578 62.9063 98.0969 61.6923C93.8631 60.3907 90.3825 57.3575 88.5396 53.3633C84.8338 43.8902 87.2308 33.1884 94.6159 26.2349C96.4363 24.2693 98.4079 22.4463 100.513 20.7821L97.63 19.7733C100.28 31.9747 94.8354 44.4325 84.0694 50.8023C78.232 54.4224 70.9382 54.9334 64.5905 52.1669C59.009 48.7655 55.9711 42.428 56.8561 36.0322C58.4183 27.2881 62.8825 19.3319 69.5444 13.419L67.4675 13.5155C70.4892 16.9566 71.0179 21.8868 68.7888 25.8365C66.5157 30.8795 62.9332 35.2286 58.403 38.4446C53.536 42.4938 47.3006 44.5846 40.9199 44.3069C34.8566 44.0205 29.4253 40.433 26.8153 34.9904C25.0867 30.2134 25.2986 24.9736 27.4059 20.38C29.4965 15.2748 32.5578 10.6205 36.4247 6.66788C37.8886 4.3658 40.5557 3.09967 43.2999 3.40403C45.1398 4.85166 45.8182 7.31112 44.9713 9.464C43.5473 14.7502 40.6954 19.5422 36.7205 23.328C28.698 31.5439 17.4032 35.8261 5.83096 35.0391C4.41812 34.9236 3.01335 34.7196 1.62511 34.4284C0.343544 34.1568 -0.379874 36.0451 0.944859 36.3727L0.943521 36.3766Z" fill="#DDE0F0"/>
</svg>
