<?xml version="1.0" encoding="iso-8859-1"?>
<!-- Uploaded to: SVG Repo, www.svgrepo.com, Generator: SVG Repo Mixer Tools -->
<svg height="800px" width="800px" version="1.1" id="Layer_1" xmlns="http://www.w3.org/2000/svg" xmlns:xlink="http://www.w3.org/1999/xlink" 
	 viewBox="0 0 512 512" xml:space="preserve">
<circle style="fill:#273B7A;" cx="256" cy="256" r="256"/>
<path style="fill:#121149;" d="M258.112,511.972C398.522,510.836,512,396.679,512,256l0,0l-85.333-85.333
	c0,0-208.029,99.594-222.73,114.293c-3.739,3.739,8.202,19.349,28.062,40.531l-93.751,66.619L258.112,511.972z"/>
<path style="fill:#38C6D9;" d="M103.855,286.26c0,0,90.658-131.108,322.812-115.593c0,0-141.072,52.579-177.123,221.443
	L103.855,286.26z"/>
<path style="fill:#02B2B2;" d="M196.949,353.897l52.595,38.212c36.05-168.863,177.123-221.443,177.123-221.443
	S201.53,193.453,196.949,353.897z"/>
<polygon style="fill:#FFC61B;" points="193.896,220.841 221.72,277.22 283.936,286.26 238.916,330.143 249.544,392.109 
	193.896,362.853 138.247,392.109 148.875,330.143 103.855,286.26 166.071,277.22 "/>
<polygon style="fill:#EAA22F;" points="283.936,286.26 221.72,277.22 193.896,220.841 193.365,221.915 193.365,363.132 
	193.896,362.853 249.544,392.109 238.916,330.143 "/>
</svg>